<svg width="273" height="403" viewBox="0 0 273 403" fill="none" xmlns="http://www.w3.org/2000/svg">
<path d="M137.426 402.32C150.915 402.32 161.866 392.018 161.866 379.292C161.866 366.583 161.866 356.281 161.866 356.281C228.592 350.169 272.764 314.925 272.764 257.59V256.653C272.764 198.381 235.17 171.599 160.456 154.218V99.7083C171.212 102.337 182.351 106.062 193.237 110.893C210.757 118.659 232.048 113.792 242.684 96.4018C253.33 79.0222 247.579 54.6094 227.858 45.7556C208.221 36.9497 186.669 30.8832 162.795 28.2735V14.1714C162.795 6.397 151.861 0.0794678 138.364 0.0794678C124.866 0.0794678 113.924 6.08104 113.924 13.4558C113.924 20.8595 113.924 26.8508 113.924 26.8508C42.0143 32.0258 1.60531 70.5578 1.60531 126.007V126.954C1.60531 185.218 40.1373 211.079 115.799 228.45V284.847C97.6475 281.921 79.8768 275.892 61.7901 266.658C42.5233 256.829 18.92 260.304 7.2431 277.562C-4.44237 294.812 0.27656 319.319 19.7005 328.849C48.2379 342.868 80.4899 352.025 112.976 355.352V378.845C112.986 391.804 123.929 402.32 137.426 402.32ZM159.972 235.975C184.423 243.017 191.463 250.077 191.463 262.757V263.705C191.463 277.332 181.598 285.311 159.972 287.672V235.975ZM84.3088 119.894V118.956C84.3088 106.741 93.2446 97.3394 116.264 95.4641V146.221C90.8962 139.169 84.3088 132.109 84.3088 119.894Z" fill="#2E9E12"/>
</svg>
