<svg width="501" height="501" viewBox="0 0 501 501" fill="none" xmlns="http://www.w3.org/2000/svg">
<path d="M0.625977 448.386L336.723 43.651C336.723 43.651 380.748 -11.0766 479.957 2.30758C479.957 2.30758 496.967 17.8146 500.626 47.7413L162.79 461.771C162.79 461.771 134.87 502.104 16.8446 498.998C16.822 498.998 5.14371 492.785 0.625977 448.386Z" fill="white"/>
<path d="M0.625977 52.0128L336.723 456.748C336.723 456.748 380.748 511.476 479.957 498.091C479.957 498.091 496.967 482.61 500.626 452.58L162.79 38.5251C162.79 38.5251 134.87 -1.75687 16.8446 1.34971C16.822 1.37559 5.14371 7.58875 0.625977 52.0128Z" fill="white"/>
</svg>
