<svg width="481" height="481" viewBox="0 0 481 481" fill="none" xmlns="http://www.w3.org/2000/svg">
<path d="M168.646 64.3141H112.646V8.31412H64.6465V64.3141H8.64648V112.314H64.6465V168.314H112.646V112.314H168.646V64.3141Z" fill="#E9686A"/>
<path d="M472.646 64.3141V112.314H312.646V64.3141H472.646Z" fill="#32B1CC"/>
<path d="M472.646 352.314V400.314H312.646V352.314H472.646Z" fill="#55B56A"/>
<path d="M392.646 328.314C405.901 328.314 416.646 317.569 416.646 304.314C416.646 291.059 405.901 280.314 392.646 280.314C379.392 280.314 368.646 291.059 368.646 304.314C368.646 317.569 379.392 328.314 392.646 328.314Z" fill="#55B56A"/>
<path d="M392.646 472.314C405.901 472.314 416.646 461.569 416.646 448.314C416.646 435.059 405.901 424.314 392.646 424.314C379.392 424.314 368.646 435.059 368.646 448.314C368.646 461.569 379.392 472.314 392.646 472.314Z" fill="#55B56A"/>
<path d="M392.646 232.314H248.646V88.3141H232.646V232.314H88.6465V248.314H232.646V392.314H248.646V248.314H392.646V232.314Z" fill="#195C85"/>
<path d="M176.646 328.314L136.646 288.314L96.6465 328.314L56.6465 288.314L16.6465 327.418L56.6465 368.314L16.6465 408.314L56.6465 448.314L96.6465 408.314L136.646 448.314L176.646 408.314L136.646 368.314L176.646 328.314Z" fill="#F49E21"/>
<path d="M56.6465 176.314H120.646V120.314H176.646V56.3141H120.646V0.314117H56.6465V56.3141H0.646484V120.314H56.6465V176.314ZM16.6465 104.314V72.3141H72.6465V16.3141H104.646V72.3141H160.646V104.314H104.646V160.314H72.6465V104.314H16.6465Z" fill="black"/>
<path d="M304.646 120.314H480.646V56.3141H304.646V120.314ZM320.646 72.3141H464.646V104.314H320.646V72.3141Z" fill="black"/>
<path d="M304.646 408.314H480.646V344.314H304.646V408.314ZM320.646 360.314H464.646V392.314H320.646V360.314Z" fill="black"/>
<path d="M360.646 304.314C360.646 321.987 374.973 336.314 392.646 336.314C410.319 336.314 424.646 321.987 424.646 304.314C424.646 286.641 410.319 272.314 392.646 272.314C374.973 272.314 360.646 286.641 360.646 304.314ZM408.646 304.314C408.646 313.151 401.483 320.314 392.646 320.314C383.809 320.314 376.646 313.151 376.646 304.314C376.646 295.477 383.809 288.314 392.646 288.314C401.483 288.314 408.646 295.477 408.646 304.314Z" fill="black"/>
<path d="M424.646 448.314C424.646 430.641 410.319 416.314 392.646 416.314C374.973 416.314 360.646 430.641 360.646 448.314C360.646 465.987 374.973 480.314 392.646 480.314C410.319 480.314 424.646 465.987 424.646 448.314ZM376.646 448.314C376.646 439.477 383.809 432.314 392.646 432.314C401.483 432.314 408.646 439.477 408.646 448.314C408.646 457.151 401.483 464.314 392.646 464.314C383.809 464.314 376.646 457.151 376.646 448.314Z" fill="black"/>
<path d="M232.646 88.3141V232.314H88.6465V248.314H232.646V392.314H248.646V248.314H392.646V232.314H248.646V88.3141H232.646Z" fill="black"/>
<path d="M56.6465 459.626L96.6465 419.626L136.646 459.626L187.958 408.314L147.958 368.314L187.958 328.314L136.646 277.002L96.6465 317.002L56.7105 277.066L5.33447 327.29L45.3985 368.25L5.33447 408.314L56.6465 459.626ZM27.9585 327.514L56.5825 299.514L96.6465 339.626L136.646 299.626L165.334 328.314L125.334 368.314L165.334 408.314L136.646 437.002L96.6465 397.002L56.6465 437.002L27.9585 408.314L67.8945 368.378L27.9585 327.514Z" fill="black"/>
</svg>
