<svg width="481" height="425" viewBox="0 0 481 425" fill="none" xmlns="http://www.w3.org/2000/svg">
<path d="M472.885 424.314H8.88525C4.46725 424.314 0.885254 420.732 0.885254 416.314C0.885254 411.896 4.46725 408.314 8.88525 408.314H464.885V40.3141C464.885 35.8961 468.467 32.3141 472.885 32.3141C477.303 32.3141 480.885 35.8961 480.885 40.3141V416.314C480.885 420.732 477.304 424.314 472.885 424.314Z" fill="#5A6470"/>
<path d="M48.8853 208.314H144.885V384.314H48.8853V208.314Z" fill="#FDBD40"/>
<path d="M192.885 112.314H288.885V384.314H192.885V112.314Z" fill="#E9686A"/>
<path d="M336.885 32.3141H432.885V384.314H336.885V32.3141Z" fill="#238892"/>
<path d="M168.885 8.31412L195.229 34.6581L128.885 101.002L110.541 82.6581C107.417 79.5351 102.353 79.5351 99.2292 82.6581L3.22921 178.658C0.0512092 181.727 -0.0367908 186.792 3.03221 189.97C6.10121 193.148 11.1662 193.236 14.3442 190.167C14.4112 190.103 14.4762 190.037 14.5412 189.97L104.885 99.6261L123.229 117.97C126.353 121.093 131.417 121.093 134.541 117.97L206.541 45.9701L232.885 72.3141L240.885 0.314117L168.885 8.31412Z" fill="#E9686A"/>
<path d="M80.8853 360.314C76.4673 360.314 72.8853 356.732 72.8853 352.314V336.314C72.8853 331.896 76.4673 328.314 80.8853 328.314C85.3033 328.314 88.8853 331.896 88.8853 336.314V352.314C88.8853 356.732 85.3043 360.314 80.8853 360.314Z" fill="white"/>
<path d="M80.8853 312.314C76.4673 312.314 72.8853 308.732 72.8853 304.314V272.314C72.8853 267.896 76.4673 264.314 80.8853 264.314C85.3033 264.314 88.8853 267.896 88.8853 272.314V304.314C88.8853 308.732 85.3043 312.314 80.8853 312.314Z" fill="white"/>
<path d="M224.885 360.314C220.467 360.314 216.885 356.732 216.885 352.314V336.314C216.885 331.896 220.467 328.314 224.885 328.314C229.303 328.314 232.885 331.896 232.885 336.314V352.314C232.885 356.732 229.304 360.314 224.885 360.314Z" fill="white"/>
<path d="M224.885 312.314C220.467 312.314 216.885 308.732 216.885 304.314V224.314C216.885 219.896 220.467 216.314 224.885 216.314C229.303 216.314 232.885 219.896 232.885 224.314V304.314C232.885 308.732 229.304 312.314 224.885 312.314Z" fill="white"/>
<path d="M368.885 360.314C364.467 360.314 360.885 356.732 360.885 352.314V336.314C360.885 331.896 364.467 328.314 368.885 328.314C373.303 328.314 376.885 331.896 376.885 336.314V352.314C376.885 356.732 373.304 360.314 368.885 360.314Z" fill="white"/>
<path d="M368.885 312.314C364.467 312.314 360.885 308.732 360.885 304.314V144.314C360.885 139.896 364.467 136.314 368.885 136.314C373.303 136.314 376.885 139.896 376.885 144.314V304.314C376.885 308.732 373.304 312.314 368.885 312.314Z" fill="white"/>
</svg>
