<svg width="18" height="17" viewBox="0 0 18 17" fill="none" xmlns="http://www.w3.org/2000/svg">
<path d="M15.068 14.1119H3.20893L0.472229 16.5205V2.872C0.472229 1.54729 1.70375 0.46344 3.20893 0.46344H15.068C16.5732 0.46344 17.8047 1.54729 17.8047 2.872V11.7034C17.8047 13.0281 16.5732 14.1119 15.068 14.1119Z" fill="#EC811D"/>
<path d="M8.2262 6.0834H10.0507V10.4991H8.2262V6.0834Z" fill="white"/>
<path d="M9.13843 4.87914C9.64224 4.87914 10.0507 4.51969 10.0507 4.07629C10.0507 3.63289 9.64224 3.27344 9.13843 3.27344C8.63462 3.27344 8.2262 3.63289 8.2262 4.07629C8.2262 4.51969 8.63462 4.87914 9.13843 4.87914Z" fill="white"/>
</svg>
