<svg width="466" height="183" viewBox="0 0 466 183" fill="none" xmlns="http://www.w3.org/2000/svg">
<g filter="url(#filter0_d)">
<path d="M168.183 172.861C167.619 172.957 167.007 173.005 166.347 173.005C165.699 173.005 165.093 172.957 164.529 172.861V157.741L161.433 157.795C161.337 157.363 161.289 156.901 161.289 156.409C161.289 155.965 161.337 155.515 161.433 155.059L164.385 155.095C164.325 154.531 164.265 153.979 164.205 153.439C164.157 152.887 164.133 152.359 164.133 151.855C164.133 150.271 164.619 148.939 165.591 147.859C166.575 146.779 167.943 146.239 169.695 146.239C170.511 146.239 171.345 146.329 172.197 146.509C173.049 146.689 173.751 146.881 174.303 147.085C174.303 147.529 174.225 147.991 174.069 148.471C173.925 148.939 173.721 149.317 173.457 149.605C172.989 149.461 172.479 149.335 171.927 149.227C171.387 149.119 170.859 149.065 170.343 149.065C169.503 149.065 168.849 149.323 168.381 149.839C167.913 150.355 167.679 151.105 167.679 152.089C167.679 152.557 167.703 153.049 167.751 153.565C167.799 154.069 167.865 154.585 167.949 155.113L173.007 155.059C173.103 155.515 173.151 155.965 173.151 156.409C173.151 156.901 173.103 157.363 173.007 157.795L168.183 157.741V172.861ZM175.58 158.893C175.58 158.269 175.538 157.681 175.454 157.129C175.37 156.565 175.214 156.073 174.986 155.653C175.262 155.413 175.61 155.221 176.03 155.077C176.45 154.921 176.882 154.843 177.326 154.843C178.058 154.843 178.568 155.047 178.856 155.455C179.156 155.851 179.306 156.439 179.306 157.219V166.381C179.306 167.581 179.456 168.457 179.756 169.009C180.068 169.561 180.662 169.837 181.538 169.837C182.246 169.837 183.014 169.639 183.842 169.243C184.67 168.847 185.408 168.301 186.056 167.605V155.095C186.56 154.999 187.172 154.951 187.892 154.951C188.624 154.951 189.248 154.999 189.764 155.095V167.821C189.764 168.517 189.836 169.177 189.98 169.801C190.124 170.413 190.388 170.893 190.772 171.241C190.676 171.577 190.496 171.931 190.232 172.303C189.968 172.663 189.686 172.939 189.386 173.131C188.594 172.975 187.952 172.663 187.46 172.195C186.98 171.727 186.62 171.163 186.38 170.503C185.6 171.271 184.688 171.913 183.644 172.429C182.6 172.933 181.502 173.185 180.35 173.185C179.234 173.185 178.322 172.927 177.614 172.411C176.918 171.883 176.402 171.175 176.066 170.287C175.742 169.387 175.58 168.385 175.58 167.281V158.893ZM209.614 169.063C209.614 169.687 209.656 170.281 209.74 170.845C209.824 171.397 209.98 171.883 210.208 172.303C209.944 172.531 209.602 172.717 209.182 172.861C208.762 173.017 208.324 173.095 207.868 173.095C207.148 173.095 206.638 172.897 206.338 172.501C206.05 172.105 205.906 171.517 205.906 170.737V161.575C205.906 160.375 205.75 159.499 205.438 158.947C205.126 158.395 204.532 158.119 203.656 158.119C202.948 158.119 202.18 158.317 201.352 158.713C200.524 159.109 199.792 159.649 199.156 160.333V172.861C198.652 172.957 198.034 173.005 197.302 173.005C196.57 173.005 195.946 172.957 195.43 172.861V155.167L195.664 154.933H197.068C197.764 154.933 198.268 155.131 198.58 155.527C198.904 155.911 199.09 156.451 199.138 157.147C199.906 156.451 200.782 155.881 201.766 155.437C202.75 154.993 203.776 154.771 204.844 154.771C205.972 154.771 206.884 155.035 207.58 155.563C208.288 156.079 208.804 156.787 209.128 157.687C209.452 158.575 209.614 159.571 209.614 160.675V169.063ZM224.478 161.953C224.502 161.173 224.43 160.447 224.262 159.775C224.106 159.091 223.794 158.539 223.326 158.119C222.858 157.687 222.186 157.471 221.31 157.471C220.17 157.471 219.282 158.023 218.646 159.127C218.022 160.231 217.71 161.881 217.71 164.077C217.71 166.237 218.064 167.815 218.772 168.811C219.48 169.795 220.482 170.287 221.778 170.287C222.594 170.287 223.368 170.101 224.1 169.729C224.832 169.345 225.516 168.919 226.152 168.451C226.476 168.655 226.794 168.979 227.106 169.423C227.43 169.855 227.634 170.275 227.718 170.683C226.902 171.475 225.936 172.117 224.82 172.609C223.704 173.089 222.504 173.329 221.22 173.329C219.504 173.329 218.1 172.903 217.008 172.051C215.928 171.199 215.13 170.071 214.614 168.667C214.11 167.263 213.858 165.733 213.858 164.077C213.858 161.857 214.218 160.051 214.938 158.659C215.67 157.267 216.612 156.247 217.764 155.599C218.916 154.951 220.128 154.627 221.4 154.627C222.864 154.627 224.076 154.909 225.036 155.473C225.996 156.025 226.716 156.721 227.196 157.561C227.676 158.389 227.916 159.217 227.916 160.045C227.916 160.681 227.766 161.185 227.466 161.557C227.166 161.929 226.686 162.115 226.026 162.115C225.51 162.115 224.994 162.061 224.478 161.953ZM232.693 151.945C232.693 151.117 232.831 150.517 233.107 150.145C233.383 149.761 233.917 149.569 234.709 149.569H236.113L236.329 149.803V155.113L240.793 155.059C240.901 155.527 240.955 155.977 240.955 156.409C240.955 156.901 240.901 157.363 240.793 157.795L236.329 157.741V168.505C236.329 168.985 236.443 169.369 236.671 169.657C236.899 169.933 237.283 170.071 237.823 170.071H240.289C240.493 170.623 240.595 171.247 240.595 171.943C240.595 172.087 240.589 172.231 240.577 172.375C240.577 172.507 240.559 172.633 240.523 172.753C239.923 172.825 239.281 172.885 238.597 172.933C237.913 172.993 237.217 173.023 236.509 173.023C233.965 173.023 232.693 171.787 232.693 169.315V157.759L230.065 157.795C229.957 157.363 229.903 156.901 229.903 156.409C229.903 155.977 229.957 155.527 230.065 155.059L232.693 155.095V151.945ZM249.001 172.861C248.485 172.957 247.867 173.005 247.147 173.005C246.415 173.005 245.791 172.957 245.275 172.861V159.667C245.275 159.031 245.161 158.563 244.933 158.263C244.705 157.951 244.297 157.795 243.709 157.795H243.313C243.205 157.375 243.151 156.943 243.151 156.499C243.151 156.043 243.205 155.587 243.313 155.131C243.769 155.071 244.195 155.029 244.591 155.005C244.999 154.981 245.335 154.969 245.599 154.969H246.085C246.985 154.969 247.693 155.257 248.209 155.833C248.737 156.397 249.001 157.177 249.001 158.173V172.861ZM244.177 150.289C244.177 149.677 244.285 149.143 244.501 148.687C244.717 148.555 245.011 148.447 245.383 148.363C245.755 148.279 246.121 148.237 246.481 148.237C246.817 148.237 247.183 148.279 247.579 148.363C247.975 148.447 248.269 148.555 248.461 148.687C248.569 148.891 248.647 149.149 248.695 149.461C248.755 149.761 248.785 150.037 248.785 150.289C248.785 150.889 248.677 151.423 248.461 151.891C248.281 152.023 247.987 152.131 247.579 152.215C247.183 152.287 246.817 152.323 246.481 152.323C246.121 152.323 245.749 152.287 245.365 152.215C244.993 152.131 244.705 152.023 244.501 151.891C244.285 151.423 244.177 150.889 244.177 150.289ZM268.891 163.969C268.891 165.817 268.597 167.443 268.009 168.847C267.421 170.251 266.551 171.349 265.399 172.141C264.247 172.933 262.813 173.329 261.097 173.329C259.393 173.329 257.965 172.933 256.813 172.141C255.661 171.337 254.791 170.233 254.203 168.829C253.627 167.413 253.339 165.793 253.339 163.969C253.339 162.145 253.633 160.531 254.221 159.127C254.809 157.711 255.679 156.607 256.831 155.815C257.983 155.023 259.405 154.627 261.097 154.627C262.825 154.627 264.265 155.029 265.417 155.833C266.569 156.625 267.433 157.729 268.009 159.145C268.597 160.549 268.891 162.157 268.891 163.969ZM257.173 163.969C257.173 165.097 257.287 166.159 257.515 167.155C257.743 168.139 258.145 168.943 258.721 169.567C259.297 170.179 260.101 170.485 261.133 170.485C262.153 170.485 262.945 170.179 263.509 169.567C264.085 168.943 264.487 168.139 264.715 167.155C264.943 166.159 265.057 165.097 265.057 163.969C265.057 162.865 264.943 161.815 264.715 160.819C264.487 159.823 264.085 159.013 263.509 158.389C262.945 157.765 262.153 157.453 261.133 157.453C260.101 157.453 259.297 157.765 258.721 158.389C258.145 159.013 257.743 159.823 257.515 160.819C257.287 161.815 257.173 162.865 257.173 163.969ZM287.45 169.063C287.45 169.687 287.492 170.281 287.576 170.845C287.66 171.397 287.816 171.883 288.044 172.303C287.78 172.531 287.438 172.717 287.018 172.861C286.598 173.017 286.16 173.095 285.704 173.095C284.984 173.095 284.474 172.897 284.174 172.501C283.886 172.105 283.742 171.517 283.742 170.737V161.575C283.742 160.375 283.586 159.499 283.274 158.947C282.962 158.395 282.368 158.119 281.492 158.119C280.784 158.119 280.016 158.317 279.188 158.713C278.36 159.109 277.628 159.649 276.992 160.333V172.861C276.488 172.957 275.87 173.005 275.138 173.005C274.406 173.005 273.782 172.957 273.266 172.861V155.167L273.5 154.933H274.904C275.6 154.933 276.104 155.131 276.416 155.527C276.74 155.911 276.926 156.451 276.974 157.147C277.742 156.451 278.618 155.881 279.602 155.437C280.586 154.993 281.612 154.771 282.68 154.771C283.808 154.771 284.72 155.035 285.416 155.563C286.124 156.079 286.64 156.787 286.964 157.687C287.288 158.575 287.45 159.571 287.45 160.675V169.063ZM291.226 171.547C291.238 171.127 291.364 170.659 291.604 170.143C291.844 169.627 292.126 169.225 292.45 168.937C293.206 169.357 294.016 169.729 294.88 170.053C295.744 170.377 296.62 170.539 297.508 170.539C298.492 170.539 299.266 170.329 299.83 169.909C300.406 169.489 300.7 168.949 300.712 168.289C300.712 167.209 299.962 166.393 298.462 165.841L296.374 165.067C295.126 164.611 294.052 163.981 293.152 163.177C292.252 162.373 291.802 161.293 291.802 159.937C291.802 158.833 292.078 157.885 292.63 157.093C293.194 156.301 293.956 155.695 294.916 155.275C295.876 154.843 296.962 154.627 298.174 154.627C299.146 154.627 300.178 154.753 301.27 155.005C302.374 155.257 303.298 155.563 304.042 155.923C304.054 156.379 303.958 156.877 303.754 157.417C303.55 157.957 303.286 158.365 302.962 158.641C302.326 158.365 301.588 158.101 300.748 157.849C299.908 157.597 299.044 157.471 298.156 157.471C297.364 157.471 296.728 157.663 296.248 158.047C295.78 158.419 295.546 158.923 295.546 159.559C295.546 160.063 295.726 160.483 296.086 160.819C296.458 161.155 297.022 161.461 297.778 161.737L299.992 162.547C301.336 163.039 302.434 163.723 303.286 164.599C304.138 165.463 304.564 166.585 304.564 167.965C304.564 169.633 303.916 170.947 302.62 171.907C301.336 172.855 299.632 173.329 297.508 173.329C296.236 173.329 295.066 173.149 293.998 172.789C292.93 172.429 292.006 172.015 291.226 171.547Z" fill="#EAEAEA"/>
</g>
<rect x="188.483" y="0.176025" width="8.73685" height="34.0402" rx="4.36843" fill="black"/>
<path d="M150.046 73.6519H234.564" stroke="#617787" stroke-width="1.87218" stroke-linecap="round"/>
<path d="M182.688 32.0671L186.253 46.006C186.295 46.1701 186.268 46.3443 186.179 46.4885L133.639 131.575L130.098 133.218L128.25 134.076C127.706 134.328 127.154 133.744 127.437 133.216L129.435 129.474L181.532 31.9277C181.801 31.4254 182.546 31.5154 182.688 32.0671Z" fill="#ACBECD"/>
<path d="M133.639 131.575L186.179 46.4885C186.268 46.3443 186.295 46.1701 186.253 46.006L182.687 32.0671C182.546 31.5154 181.801 31.4254 181.532 31.9277L129.435 129.474M133.639 131.575L129.435 129.474M133.639 131.575L130.098 133.218L128.25 134.076C127.706 134.328 127.154 133.744 127.437 133.216L129.435 129.474" stroke="#ACBECD" stroke-width="0.624061"/>
<path d="M133.491 130.494L130.214 129.227C129.92 129.113 129.587 129.236 129.438 129.514L127.448 133.237C127.165 133.766 127.718 134.35 128.262 134.097L133.529 131.642C134.028 131.409 134.004 130.692 133.491 130.494Z" fill="black" stroke="black" stroke-width="0.624061"/>
<path d="M203.016 31.5776L199.451 45.5165C199.409 45.6806 199.436 45.8548 199.525 45.999L252.065 131.085L255.606 132.729L257.454 133.587C257.997 133.839 258.549 133.255 258.267 132.727L256.269 128.985L204.171 31.4382C203.903 30.9359 203.157 31.0259 203.016 31.5776Z" fill="#ACBECD"/>
<path d="M252.065 131.085L199.525 45.999C199.436 45.8548 199.409 45.6806 199.451 45.5165L203.016 31.5776C203.157 31.0259 203.903 30.9359 204.171 31.4382L256.269 128.985M252.065 131.085L256.269 128.985M252.065 131.085L255.606 132.729L257.454 133.587C257.997 133.839 258.549 133.255 258.267 132.727L256.269 128.985" stroke="#ACBECD" stroke-width="0.624061"/>
<path d="M252.213 130.004L255.49 128.737C255.784 128.623 256.117 128.747 256.265 129.025L258.256 132.747C258.539 133.276 257.986 133.861 257.442 133.607L252.175 131.152C251.676 130.92 251.7 130.203 252.213 130.004Z" fill="black" stroke="black" stroke-width="0.624061"/>
<circle cx="240.284" cy="106.146" r="7.80076" fill="black"/>
<circle cx="240.284" cy="106.146" r="1.56015" fill="#ACBECD"/>
<circle cx="192.852" cy="36.1069" r="15.6015" fill="#617787"/>
<circle cx="192.852" cy="36.1069" r="7.80076" fill="#AABCCA"/>
<circle cx="164.284" cy="73.6519" r="1.56015" fill="black"/>
<circle cx="221.677" cy="73.6519" r="1.56015" fill="black"/>
<path d="M9.44319 11.1448C11.5813 10.7884 13.8678 10.5509 16.3029 10.4321C18.7379 10.3133 20.7275 10.2539 22.2717 10.2539C23.8158 10.2539 25.6867 10.3133 27.8841 10.4321C30.0816 10.5509 32.2197 10.7884 34.2984 11.1448L51.2249 66.9131C51.6406 68.279 52.1751 70.2686 52.8284 72.8819C53.5411 75.4951 54.2835 78.2865 55.0556 81.256C55.8277 84.2256 56.481 86.9873 57.0155 89.5411C57.6094 92.0949 58.0251 93.9657 58.2627 95.1535H59.2427C59.4802 93.9657 59.896 92.0949 60.4899 89.5411C61.0838 86.9873 61.7371 84.2256 62.4498 81.256C63.2219 78.2865 63.9346 75.4951 64.5879 72.8819C65.3005 70.2686 65.8648 68.279 66.2805 66.9131L83.207 11.1448C85.4638 10.7884 87.6316 10.5509 89.7103 10.4321C91.8484 10.3133 93.7192 10.2539 95.3228 10.2539C96.8075 10.2539 98.7378 10.3133 101.113 10.4321C103.489 10.5509 105.835 10.7884 108.151 11.1448L117.594 132.481C116.228 132.837 114.655 133.104 112.873 133.283C111.091 133.461 109.428 133.55 107.884 133.55C104.796 133.55 101.975 133.342 99.4208 132.926L95.2337 67.7148C95.0555 64.5077 94.8476 60.7661 94.6101 56.4899C94.4319 52.1544 94.2537 47.7891 94.0756 43.3942C93.9568 38.9992 93.8677 35.0497 93.8083 31.5456H92.8283L68.3295 114.129C66.9041 114.367 65.3006 114.545 63.5188 114.664C61.7371 114.782 60.1335 114.842 58.7081 114.842C57.2828 114.842 55.6792 114.782 53.8975 114.664C52.1157 114.545 50.5419 114.367 49.1759 114.129L24.7661 31.5456H23.6971C23.5783 35.0497 23.4298 38.9992 23.2516 43.3942C23.1328 47.7891 22.9844 52.1544 22.8062 56.4899C22.628 60.7661 22.4498 64.5077 22.2717 67.7148L18.0846 132.926C16.6592 133.164 15.2338 133.312 13.8084 133.372C12.3831 133.491 10.928 133.55 9.44319 133.55C7.83963 133.55 6.17668 133.461 4.45434 133.283C2.73199 133.104 1.24721 132.837 0 132.481L9.44319 11.1448Z" fill="#EC7100"/>
<path d="M387.048 138.861C385.431 139.198 383.646 139.4 381.692 139.468C379.738 139.602 377.919 139.67 376.234 139.67C374.617 139.67 372.798 139.602 370.777 139.468C368.823 139.4 367.071 139.198 365.521 138.861V0.80851C367.139 0.471632 368.924 0.269504 370.878 0.202126C372.832 0.0673759 374.617 0 376.234 0C377.919 0 379.738 0.0673759 381.692 0.202126C383.646 0.269504 385.431 0.471632 387.048 0.80851V43.5584C387.048 46.3882 387.014 48.9147 386.947 51.1381C386.88 53.3615 386.846 55.8207 386.846 58.5158C387.52 58.5158 388.665 58.5158 390.282 58.5158C391.899 58.4484 393.482 58.4147 395.032 58.4147C396.649 58.3473 397.761 58.3136 398.367 58.3136H432.426C433.099 58.3136 434.211 58.3473 435.761 58.4147C437.378 58.4147 438.961 58.4484 440.511 58.5158C442.128 58.5158 443.273 58.5158 443.947 58.5158C443.947 55.8207 443.913 53.3615 443.846 51.1381C443.778 48.9147 443.745 46.3882 443.745 43.5584V0.80851C445.294 0.471632 447.046 0.269504 449 0.202126C450.954 0.0673759 452.739 0 454.356 0C455.973 0 457.792 0.0673759 459.814 0.202126C461.835 0.269504 463.654 0.471632 465.271 0.80851V138.861C463.587 139.198 461.801 139.4 459.915 139.468C458.028 139.602 456.209 139.67 454.457 139.67C452.84 139.67 451.055 139.602 449.101 139.468C447.147 139.4 445.362 139.198 443.745 138.861V91.5635C443.745 88.7338 443.778 86.2409 443.846 84.0848C443.913 81.8614 443.947 79.3685 443.947 76.6061C443.273 76.6061 442.128 76.6398 440.511 76.7072C438.961 76.7072 437.378 76.7409 435.761 76.8083C434.211 76.8083 433.099 76.8083 432.426 76.8083H398.367C397.761 76.8083 396.649 76.8083 395.032 76.8083C393.482 76.7409 391.899 76.7072 390.282 76.7072C388.665 76.6398 387.52 76.6061 386.846 76.6061C386.846 79.3685 386.88 81.8614 386.947 84.0848C387.014 86.2409 387.048 88.7338 387.048 91.5635V138.861Z" fill="#C16510"/>
<path d="M340.389 5.57568C341.338 7.61038 342.22 9.88246 343.034 12.3919C343.916 14.8336 344.356 16.97 344.356 18.8012C344.356 20.0899 344.051 21.5141 343.441 23.0741C342.83 24.634 341.847 26.3635 340.49 28.2626C331.538 40.1995 324.247 51.3225 318.617 61.6316C312.988 71.9408 308.613 82.3177 305.494 92.7625C302.442 103.207 300.305 114.636 299.084 127.047L298.474 134.372C297.05 134.711 295.388 134.949 293.489 135.084C291.59 135.22 289.623 135.288 287.588 135.288C285.689 135.288 283.756 135.22 281.789 135.084C279.822 134.949 278.093 134.711 276.601 134.372L277.415 125.928C278.568 113.584 281.247 101.173 285.452 88.6931C289.657 76.2136 295.049 64.3446 301.628 53.0859C308.207 41.7594 315.701 31.6876 324.111 22.8706L323.399 22.0567C321.975 22.328 319.838 22.5993 316.99 22.8706C314.141 23.0741 311.055 23.2436 307.732 23.3793C304.408 23.5149 301.322 23.6167 298.474 23.6845C295.693 23.7523 293.658 23.7862 292.37 23.7862H258.899C258.289 21.4802 257.983 19.0386 257.983 16.4613C257.983 12.731 258.594 9.10249 259.815 5.57568H340.389Z" fill="#EC811D"/>
<defs>
<filter id="filter0_d" x="157.289" y="146.239" width="151.275" height="35.09" filterUnits="userSpaceOnUse" color-interpolation-filters="sRGB">
<feFlood flood-opacity="0" result="BackgroundImageFix"/>
<feColorMatrix in="SourceAlpha" type="matrix" values="0 0 0 0 0 0 0 0 0 0 0 0 0 0 0 0 0 0 127 0"/>
<feOffset dy="4"/>
<feGaussianBlur stdDeviation="2"/>
<feColorMatrix type="matrix" values="0 0 0 0 0 0 0 0 0 0 0 0 0 0 0 0 0 0 0.25 0"/>
<feBlend mode="normal" in2="BackgroundImageFix" result="effect1_dropShadow"/>
<feBlend mode="normal" in="SourceGraphic" in2="effect1_dropShadow" result="shape"/>
</filter>
</defs>
</svg>
