<svg width="497" height="497" viewBox="0 0 497 497" fill="none" xmlns="http://www.w3.org/2000/svg">
<path d="M472.166 200.314H344.166C335.365 200.314 328.166 207.513 328.166 216.314V424.314C328.166 433.115 335.365 440.314 344.166 440.314H472.166C480.966 440.314 488.166 433.115 488.166 424.314V216.314C488.166 207.513 480.966 200.314 472.166 200.314Z" fill="#FCD770"/>
<path d="M24.1655 40.3141V231.435L75.9272 280.314H328.166V216.314C328.166 207.513 335.365 200.314 344.166 200.314H392.166V40.3141H24.1655Z" fill="#E6E9ED"/>
<path d="M360.166 232.314H456.166V280.314H360.166V232.314Z" fill="#69D6F4"/>
<path d="M440.166 104.314V136.314H248.166V104.314H440.166Z" fill="#B4DD7F"/>
<path d="M440.166 72.3141V104.314H248.166V72.3141H440.166Z" fill="#FF826E"/>
<path d="M248.166 104.314V136.314L200.166 104.314L248.166 72.3141V104.314Z" fill="#F5E0CD"/>
<path d="M488.166 96.3141V112.314C488.166 125.595 477.447 136.314 464.166 136.314H440.166V72.3141H464.166C477.447 72.3141 488.166 83.0329 488.166 96.3141Z" fill="#FFEAA7"/>
<path d="M8.16553 456.314V216.314L24.1655 231.435L75.9272 280.314L296.166 488.314H8.16553V456.314ZM56.1655 327.673V440.314H175.447L56.1655 327.673Z" fill="#FFEAA7"/>
<path d="M408.166 16.3141V32.3141C408.166 36.7126 404.564 40.3141 400.166 40.3141H16.1655C11.7671 40.3141 8.16553 36.7126 8.16553 32.3141V16.3141C8.16553 11.9157 11.7671 8.31412 16.1655 8.31412H400.166C404.564 8.31412 408.166 11.9157 408.166 16.3141Z" fill="#838F9B"/>
<path d="M464.166 144.314C481.814 144.314 496.166 129.963 496.166 112.314V96.3141C496.166 78.6657 481.814 64.3141 464.166 64.3141H400.166V48.3141C408.99 48.3141 416.166 41.1383 416.166 32.3141V16.3141C416.166 7.4899 408.99 0.314117 400.166 0.314117H16.1655C7.34131 0.314117 0.165527 7.4899 0.165527 16.3141V32.3141C0.165527 41.1383 7.34131 48.3141 16.1655 48.3141V212.865L0.165527 197.756V496.314H316.287L96.0522 288.314H320.166V424.314C320.166 437.545 330.935 448.314 344.166 448.314H472.166C485.396 448.314 496.166 437.545 496.166 424.314V216.314C496.166 203.084 485.396 192.314 472.166 192.314H400.166V144.314H464.166ZM432.166 96.3141H256.166V80.3141H432.166V96.3141ZM240.166 121.369L214.591 104.314L240.166 87.2594V121.369ZM256.166 112.314H432.166V128.314H256.166V112.314ZM480.166 96.3141V112.314C480.166 121.138 472.99 128.314 464.166 128.314H448.166V80.3141H464.166C472.99 80.3141 480.166 87.4899 480.166 96.3141ZM16.1655 16.3141H400.166L400.173 32.3141H16.1655V16.3141ZM16.1655 480.314V464.314H32.1655V448.314H16.1655V432.314H32.1655V416.314H16.1655V400.314H32.1655V384.314H16.1655V368.314H32.1655V352.314H16.1655V336.314H32.1655V320.314H16.1655V304.314H32.1655V288.314H16.1655V234.873L276.044 480.314H16.1655ZM480.166 216.314V424.314C480.166 428.728 476.572 432.314 472.166 432.314H344.166C339.759 432.314 336.166 428.728 336.166 424.314V216.314C336.166 211.9 339.759 208.314 344.166 208.314H472.166C476.572 208.314 480.166 211.9 480.166 216.314ZM384.166 192.314H248.166V208.314H321.638C320.74 210.826 320.166 213.498 320.166 216.314V224.314H248.166V240.314H320.166V272.314H79.1108L32.1655 227.978V48.3141H384.166V64.3141H245.74L185.74 104.314L245.74 144.314H384.166V192.314Z" fill="black"/>
<path d="M168.166 96.3141H113.166L98.7085 204.689L76.0054 176.314H48.1655V192.314H68.3257L109.623 243.939L127.166 112.314H168.166V96.3141Z" fill="black"/>
<path d="M218.509 138.658L184.166 173.002L149.822 138.658L138.509 149.97L172.853 184.314L138.509 218.658L149.822 229.97L184.166 195.627L218.509 229.97L229.822 218.658L195.478 184.314L229.822 149.97L218.509 138.658Z" fill="black"/>
<path d="M248.166 160.314H368.166V176.314H248.166V160.314Z" fill="black"/>
<path d="M48.1655 309.115V448.314H195.548L48.1655 309.115ZM64.1655 346.236L155.31 432.314H64.1655V346.236Z" fill="black"/>
<path d="M464.166 224.314H352.166V288.314H464.166V224.314ZM448.166 272.314H368.166V240.314H448.166V272.314Z" fill="black"/>
<path d="M416.166 320.314H464.166V336.314H416.166V320.314Z" fill="black"/>
<path d="M352.166 368.314H400.166V384.314H352.166V368.314Z" fill="black"/>
<path d="M352.166 400.314H400.166V416.314H352.166V400.314Z" fill="black"/>
<path d="M368.166 352.314H384.166V336.314H400.166V320.314H384.166V304.314H368.166V320.314H352.166V336.314H368.166V352.314Z" fill="black"/>
<path d="M450.509 370.658L440.166 381.002L429.822 370.658L418.509 381.97L428.853 392.314L418.509 402.658L429.822 413.97L440.166 403.627L450.509 413.97L461.822 402.658L451.478 392.314L461.822 381.97L450.509 370.658Z" fill="black"/>
</svg>
