<svg width="21" height="21" viewBox="0 0 21 21" fill="none" xmlns="http://www.w3.org/2000/svg">
<path d="M18.3592 16.8002C18.3637 16.7937 18.3704 16.7871 18.3748 16.7806C19.8369 15.0776 20.7164 12.8827 20.7164 10.4845C20.7164 8.08638 19.8369 5.89151 18.3771 4.18853C18.3726 4.18197 18.3659 4.17759 18.3614 4.17104C18.3369 4.14262 18.3146 4.11638 18.29 4.09015C18.2811 4.07922 18.2722 4.07048 18.2632 4.05954L18.1717 3.9568L18.1695 3.95461C18.136 3.91745 18.1003 3.88028 18.0668 3.84312L18.0646 3.84093C17.9931 3.7666 17.9217 3.69228 17.8481 3.62013L17.8458 3.61795L17.7387 3.51301L17.732 3.50646C17.6985 3.47366 17.665 3.44306 17.6315 3.41245C17.6204 3.40152 17.6092 3.39059 17.5958 3.37966C17.5735 3.3578 17.5512 3.33813 17.5289 3.31845C17.5222 3.31189 17.5132 3.30533 17.5065 3.29659C15.7253 1.67886 13.3391 0.690735 10.7164 0.690735C8.09359 0.690735 5.70743 1.67886 3.92394 3.29659C3.91725 3.30315 3.90832 3.30971 3.90162 3.31845C3.8793 3.33813 3.85698 3.35999 3.83466 3.38185C3.8235 3.39278 3.81234 3.40371 3.79894 3.41464C3.76546 3.44525 3.73198 3.47804 3.6985 3.50864L3.6918 3.5152L3.58466 3.62013L3.58243 3.62232C3.50876 3.69446 3.43734 3.76879 3.36591 3.84312L3.36368 3.8453C3.32796 3.88247 3.29448 3.91963 3.261 3.9568L3.25876 3.95898C3.22751 3.99177 3.19627 4.02675 3.16725 4.06173C3.15832 4.07266 3.14939 4.08141 3.14046 4.09234C3.11591 4.11857 3.09359 4.14699 3.06903 4.17322C3.06457 4.17978 3.05787 4.18415 3.05341 4.19071C1.59582 5.89151 0.716354 8.08638 0.716354 10.4845C0.716354 12.8827 1.59582 15.0776 3.05564 16.7806C3.0601 16.7871 3.0668 16.7937 3.07127 16.8002L3.14046 16.8811C3.14939 16.8921 3.15832 16.9008 3.16725 16.9117L3.25876 17.0145C3.25876 17.0167 3.261 17.0167 3.261 17.0189C3.29448 17.056 3.32796 17.0932 3.36368 17.1282L3.36591 17.1304C3.43734 17.2047 3.50877 17.279 3.58019 17.3511L3.58243 17.3533C3.61814 17.3883 3.65162 17.4233 3.68734 17.4561L3.69403 17.4626C3.76769 17.5348 3.84359 17.6047 3.91948 17.6725C5.70743 19.2902 8.09359 20.2784 10.7164 20.2784C13.3391 20.2784 15.7253 19.2902 17.5088 17.6725C17.5848 17.6042 17.6592 17.5343 17.732 17.4626L17.7387 17.4561C17.7744 17.4211 17.8101 17.3883 17.8436 17.3533L17.8458 17.3511C17.9195 17.279 17.9909 17.2047 18.0601 17.1304L18.0623 17.1282C18.0958 17.091 18.1315 17.056 18.165 17.0189C18.165 17.0167 18.1672 17.0167 18.1672 17.0145C18.1985 16.9817 18.2297 16.9467 18.2588 16.9117C18.2677 16.9008 18.2766 16.8921 18.2856 16.8811C18.3108 16.8548 18.3354 16.8278 18.3592 16.8002ZM18.4507 13.6828C18.1427 14.3955 17.7364 15.0557 17.2409 15.6547C16.6828 15.1824 16.0726 14.7725 15.4217 14.4327C15.6806 13.4074 15.8414 12.2815 15.8838 11.0967H19.0869C19.0199 11.9908 18.8056 12.8587 18.4507 13.6828ZM19.0869 9.87244H15.8838C15.8414 8.68756 15.6806 7.56171 15.4217 6.53642C16.0757 6.19538 16.6851 5.78439 17.2409 5.31438C18.3181 6.61288 18.9624 8.20385 19.0869 9.87244ZM13.982 2.90965C14.8681 3.27691 15.6739 3.78409 16.3838 4.42244C15.9714 4.7663 15.5276 5.0722 15.0579 5.33624C14.7074 4.35248 14.2588 3.49771 13.7364 2.81346C13.819 2.84406 13.9016 2.87685 13.982 2.90965ZM11.9597 18.2256C11.7543 18.383 11.5489 18.5032 11.3414 18.5841V14.5289C12.227 14.5894 13.098 14.7826 13.9239 15.1016C13.7387 15.6394 13.5244 16.1357 13.2766 16.5838C12.8882 17.2921 12.4329 17.8583 11.9597 18.2256ZM13.2766 4.38528C13.5222 4.83562 13.7387 5.33187 13.9239 5.86747C13.098 6.18654 12.227 6.37971 11.3414 6.44023V2.38716C11.5467 2.46805 11.7543 2.5861 11.9597 2.74569C12.4329 3.11077 12.8882 3.67697 13.2766 4.38528ZM11.3414 13.3025V11.0967H14.6338C14.5981 12.0629 14.4753 13.0008 14.2699 13.8905L14.2632 13.9168C13.3265 13.5689 12.3414 13.3617 11.3414 13.3025ZM11.3414 9.87244V7.66664C12.3637 7.60543 13.3458 7.39338 14.2632 7.05234L14.2699 7.07858C14.4753 7.96833 14.5981 8.90399 14.6338 9.87244H11.3414ZM10.0914 11.0967V13.3025C9.06903 13.3637 8.08689 13.5757 7.16948 13.9168L7.16278 13.8905C6.95743 13.0008 6.83466 12.0651 6.79894 11.0967H10.0914ZM6.79894 9.87244C6.83466 8.90617 6.95743 7.96833 7.16278 7.07858L7.16948 7.05234C8.08689 7.39338 9.0668 7.60543 10.0914 7.66664V9.87244H6.79894ZM10.0914 14.5289V18.5819C9.886 18.501 9.67841 18.383 9.47305 18.2234C8.99984 17.8583 8.54225 17.2899 8.15385 16.5816C7.90832 16.1313 7.6918 15.635 7.50653 15.0994C8.33689 14.7803 9.20073 14.5901 10.0914 14.5289ZM10.0914 6.44023C9.20566 6.37971 8.33468 6.18654 7.50876 5.86747C7.69403 5.32968 7.90832 4.83343 8.15609 4.38528C8.54448 3.67697 8.99984 3.10858 9.47528 2.7435C9.68064 2.5861 9.886 2.46586 10.0936 2.38498V6.44023H10.0914ZM7.45073 2.90965C7.53332 2.87685 7.61368 2.84406 7.69627 2.81346C7.17394 3.49771 6.72528 4.35248 6.37484 5.33624C5.90609 5.0739 5.46189 4.76785 5.04894 4.42244C5.75877 3.78409 6.56457 3.27691 7.45073 2.90965ZM2.98198 7.28626C3.29002 6.57358 3.69626 5.91337 4.1918 5.31438C4.7476 5.78439 5.35698 6.19538 6.011 6.53642C5.75207 7.56171 5.59135 8.68756 5.54894 9.87244H2.34582C2.41278 8.97831 2.62707 8.11042 2.98198 7.28626ZM2.34582 11.0967H5.54894C5.59135 12.2815 5.75207 13.4074 6.011 14.4327C5.36006 14.7725 4.74988 15.1824 4.1918 15.6547C3.11463 14.3562 2.4703 12.7652 2.34582 11.0967ZM7.45073 18.0595C6.56457 17.6922 5.75877 17.185 5.04894 16.5467C5.46189 16.2013 5.90609 15.8974 6.37484 15.6329C6.72528 16.6166 7.17394 17.4714 7.69627 18.1556C7.61368 18.125 7.53109 18.0922 7.45073 18.0595ZM13.982 18.0595C13.8994 18.0922 13.819 18.125 13.7364 18.1556C14.2588 17.4714 14.7074 16.6166 15.0579 15.6329C15.5266 15.8952 15.9708 16.2013 16.3838 16.5467C15.6779 17.1823 14.8654 17.6941 13.982 18.0595Z" fill="#EC811D"/>
</svg>
