<svg width="326" height="325" viewBox="0 0 326 325" fill="none" xmlns="http://www.w3.org/2000/svg">
<circle cx="163.146" cy="162.666" r="159.473" stroke="#D01515" stroke-width="5.70432"/>
<path d="M305.409 162.666C305.409 251.076 242.016 322.139 164.523 322.139C87.0308 322.139 23.6383 251.076 23.6383 162.666C23.6383 74.2557 87.0308 3.19322 164.523 3.19322C242.016 3.19322 305.409 74.2557 305.409 162.666Z" stroke="white" stroke-width="5.70432"/>
<path d="M287.245 162.666C287.245 251.477 231.886 322.139 165.043 322.139C98.2001 322.139 42.8414 251.477 42.8414 162.666C42.8414 73.8552 98.2001 3.19322 165.043 3.19322C231.886 3.19322 287.245 73.8552 287.245 162.666Z" stroke="#D01515" stroke-width="5.70432"/>
<path d="M223.601 162.666C223.601 207.243 216.912 247.474 206.189 276.457C200.824 290.96 194.504 302.497 187.63 310.357C180.75 318.222 173.569 322.139 166.402 322.139C159.235 322.139 152.053 318.222 145.174 310.357C138.3 302.497 131.979 290.96 126.614 276.457C115.892 247.474 109.203 207.243 109.203 162.666C109.203 118.089 115.892 77.8581 126.614 48.8745C131.979 34.3717 138.3 22.8344 145.174 14.9751C152.053 7.10994 159.235 3.19322 166.402 3.19322C173.569 3.19322 180.75 7.10994 187.63 14.9751C194.504 22.8344 200.824 34.3717 206.189 48.8745C216.912 77.8581 223.601 118.089 223.601 162.666Z" stroke="white" stroke-width="5.70432"/>
<path d="M202.773 162.666C202.773 207.338 198.528 247.691 191.709 276.796C188.294 291.372 184.269 302.969 179.902 310.853C177.718 314.795 175.519 317.678 173.381 319.545C171.262 321.396 169.339 322.139 167.593 322.139C165.847 322.139 163.924 321.396 161.804 319.545C159.666 317.678 157.468 314.795 155.284 310.853C150.917 302.969 146.892 291.372 143.477 276.796C136.658 247.691 132.413 207.338 132.413 162.666C132.413 117.993 136.658 77.6409 143.477 48.5356C146.892 33.9602 150.917 22.3632 155.284 14.4794C157.468 10.5367 159.666 7.65437 161.804 5.78712C163.924 3.93609 165.847 3.19322 167.593 3.19322C169.339 3.19322 171.262 3.93609 173.381 5.78712C175.519 7.65437 177.718 10.5367 179.902 14.4794C184.269 22.3632 188.294 33.9602 191.709 48.5356C198.528 77.6409 202.773 117.993 202.773 162.666Z" stroke="#D01515" stroke-width="5.70432"/>
<path d="M179.057 162.666C179.057 207.429 177.295 247.914 174.455 277.171C173.033 291.817 171.349 303.561 169.504 311.596C168.576 315.637 167.641 318.589 166.749 320.47C166.526 320.938 166.325 321.302 166.149 321.58C165.974 321.302 165.772 320.938 165.55 320.47C164.657 318.589 163.722 315.637 162.794 311.596C160.95 303.561 159.266 291.817 157.844 277.171C155.003 247.914 153.241 207.429 153.241 162.666C153.241 117.903 155.003 77.4182 157.844 48.1605C159.266 33.5149 160.95 21.7713 162.794 13.7355C163.722 9.69445 164.657 6.74321 165.55 4.86157C165.772 4.39345 165.974 4.02979 166.149 3.75229C166.325 4.02979 166.526 4.39345 166.749 4.86157C167.641 6.74321 168.576 9.69445 169.504 13.7355C171.349 21.7713 173.033 33.5149 174.455 48.1605C177.295 77.4182 179.057 117.903 179.057 162.666ZM166.704 3.05233C166.704 3.05244 166.702 3.05404 166.698 3.05684C166.702 3.05363 166.704 3.05223 166.704 3.05233ZM165.601 3.05684C165.597 3.05404 165.595 3.05244 165.595 3.05233C165.595 3.05223 165.597 3.05363 165.601 3.05684Z" stroke="white" stroke-width="5.70432"/>
<path d="M243.752 162.666C243.752 207.149 234.848 247.28 220.583 276.185C206.229 305.271 186.935 322.139 166.495 322.139C146.055 322.139 126.761 305.271 112.407 276.185C98.1421 247.28 89.2379 207.149 89.2379 162.666C89.2379 118.183 98.1421 78.0517 112.407 49.1472C126.761 20.0613 146.055 3.19322 166.495 3.19322C186.935 3.19322 206.229 20.0613 220.583 49.1472C234.848 78.0517 243.752 118.183 243.752 162.666Z" stroke="#D01515" stroke-width="5.70432"/>
<path d="M265.293 162.666C265.293 207.035 253.915 247.07 235.67 275.923C217.403 304.811 192.523 322.139 165.5 322.139C138.478 322.139 113.597 304.811 95.33 275.923C77.0854 247.07 65.7076 207.035 65.7076 162.666C65.7076 118.296 77.0854 78.2617 95.33 49.4093C113.597 20.5208 138.478 3.19322 165.5 3.19322C192.523 3.19322 217.403 20.5208 235.67 49.4093C253.915 78.2617 265.293 118.296 265.293 162.666Z" stroke="white" stroke-width="5.70432"/>
</svg>
