<svg width="51" height="51" viewBox="0 0 51 51" fill="none" xmlns="http://www.w3.org/2000/svg">
<path d="M44.2293 50.5H6.93481C3.42648 50.5 0.582031 47.6556 0.582031 44.1472V6.85278C0.582031 3.34444 3.42648 0.5 6.93481 0.5H44.2293C47.7376 0.5 50.582 3.34444 50.582 6.85278V44.1472C50.582 47.6556 47.7376 50.5 44.2293 50.5Z" fill="#556080"/>
<path d="M24.6565 4.2037H6.93521C5.4741 4.2037 4.28613 5.39167 4.28613 6.85278V24.5741H24.6565V4.2037Z" fill="#F0C419"/>
<path d="M4.28613 26.4259V44.1472C4.28613 45.6083 5.4741 46.7963 6.93521 46.7963H24.6565V26.4259H4.28613Z" fill="#ED7161"/>
<path d="M44.2291 4.2037H26.5078V24.5741H46.8782V6.85278C46.8782 5.39167 45.6902 4.2037 44.2291 4.2037Z" fill="#67B9CC"/>
<path d="M26.5078 46.7963H44.2291C45.6902 46.7963 46.8782 45.6083 46.8782 44.1472V26.4259H26.5078V46.7963Z" fill="#A4E869"/>
<path d="M14.0079 21.7963C17.8432 21.7963 20.9524 18.6872 20.9524 14.8519C20.9524 11.0165 17.8432 7.90741 14.0079 7.90741C10.1726 7.90741 7.06348 11.0165 7.06348 14.8519C7.06348 18.6872 10.1726 21.7963 14.0079 21.7963Z" fill="#F29C1F"/>
<path d="M36.692 7.908L30.2109 14.3891L36.692 20.8702L43.1731 14.3891L36.692 7.908Z" fill="#48A0DC"/>
<path d="M20.9522 42.1667H14.4707H7.98926L14.4707 29.2037L20.9522 42.1667Z" fill="#DF4D60"/>
<path d="M36.6935 29.2037L39.0343 33.9472L44.1009 34.7593L40.4815 38.3991L41.375 43.613L36.6935 41.1509L32.0121 43.613L32.9056 38.3991L29.2861 34.7593L34.3528 33.9472L36.6935 29.2037Z" fill="#4FBA6F"/>
</svg>
